<svg width="481" height="92" viewBox="0 0 481 92" fill="none" xmlns="http://www.w3.org/2000/svg">
<g filter="url(#filter0_n_203_661)">
<g filter="url(#filter1_nf_203_661)">
<g filter="url(#filter2_f_203_661)">
<path d="M436.213 46.0388L459.003 69.1042H437.278L425.765 57.0392L414.291 69.1042H392.566L415.316 46.0388V45.9994L392.566 22.8945H414.291L425.765 34.9989L437.278 22.8945H459.003L436.213 45.9994H436.253L436.213 46.0388Z" fill="url(#paint0_radial_203_661)"/>
</g>
<g filter="url(#filter3_f_203_661)">
<path d="M373.125 29.667H386.574V69.2054H373.125V29.667Z" fill="url(#paint1_radial_203_661)"/>
</g>
<g filter="url(#filter4_f_203_661)">
<path d="M347.308 29.7343H367.128V40.3183H347.308V69.2053H333.859V40.3183H314.039V29.7343H333.859V29.7006H347.308V29.7343Z" fill="url(#paint2_radial_203_661)"/>
</g>
<g filter="url(#filter5_f_203_661)">
<path d="M286.165 56.3629V69.1716H272.715V56.3629L246.424 29.7006H264.996L279.457 44.2957L293.883 29.7006H312.49L286.165 56.3629Z" fill="url(#paint3_radial_203_661)"/>
</g>
<g filter="url(#filter6_f_203_661)">
<path d="M258.049 58.6214V69.2054H211.533V29.667H224.982V58.6214H258.049Z" fill="url(#paint4_radial_203_661)"/>
</g>
<g filter="url(#filter7_f_203_661)">
<path d="M182.184 56.3629V69.1716H168.735V56.3629L142.443 29.7006H161.016L175.476 44.2957L189.903 29.7006H208.509L182.184 56.3629Z" fill="url(#paint5_radial_203_661)"/>
</g>
<g filter="url(#filter8_f_203_661)">
<path d="M122.796 40.5879L114.807 52.6551H130.751L122.796 40.5879ZM103.953 69.1041H88.6504L114.234 29.5657H131.324L156.941 69.1041H141.638L137.762 63.2391H107.83L103.953 69.1041Z" fill="url(#paint6_radial_203_661)"/>
</g>
<g filter="url(#filter9_f_203_661)">
<path d="M66.4174 22.9561C68.8356 22.9561 71.1093 23.416 73.2384 24.336C75.3938 25.256 77.2601 26.5177 78.8372 28.1211C80.4406 29.6983 81.7023 31.5514 82.6223 33.6805C83.5423 35.8096 84.0023 38.0964 84.0023 40.541C84.0023 42.4598 83.7 44.2998 83.0954 46.0609C82.5172 47.822 81.6892 49.4386 80.6115 50.9106C79.5601 52.3563 78.2984 53.6179 76.8264 54.6956C75.3544 55.7733 73.751 56.6013 72.0162 57.1796L86.092 69.1658H64.3671L51.3559 58.1259H38.1869V69.2052H22.4551V22.9561H66.4174ZM38.1869 35.573V45.4695H63.4208C64.1043 45.4695 64.7351 45.3381 65.3134 45.0752C65.9179 44.8123 66.4437 44.4575 66.8905 44.0106C67.3374 43.5638 67.6922 43.0512 67.9551 42.4729C68.2179 41.8684 68.3493 41.2244 68.3493 40.541C68.3493 39.8576 68.2179 39.2136 67.9551 38.609C67.6922 38.0044 67.3374 37.4787 66.8905 37.0319C66.4437 36.585 65.9179 36.2302 65.3134 35.9673C64.7351 35.7045 64.1043 35.573 63.4208 35.573H38.1869Z" fill="url(#paint7_radial_203_661)"/>
</g>
</g>
<path d="M436.213 46.0388L459.003 69.1042H437.278L425.765 57.0392L414.291 69.1042H392.566L415.316 46.0388V45.9994L392.566 22.8945H414.291L425.765 34.9989L437.278 22.8945H459.003L436.213 45.9994H436.253L436.213 46.0388Z" fill="url(#paint8_radial_203_661)" stroke="white" stroke-linejoin="round"/>
<path d="M373.125 29.667H386.574V69.2054H373.125V29.667Z" fill="url(#paint9_radial_203_661)" stroke="white" stroke-linejoin="round"/>
<path d="M347.308 29.7343H367.128V40.3183H347.308V69.2053H333.859V40.3183H314.039V29.7343H333.859V29.7006H347.308V29.7343Z" fill="url(#paint10_radial_203_661)" stroke="white" stroke-linejoin="round"/>
<path d="M286.165 56.3629V69.1716H272.715V56.3629L246.424 29.7006H264.996L279.457 44.2957L293.883 29.7006H312.49L286.165 56.3629Z" fill="url(#paint11_radial_203_661)" stroke="white" stroke-linejoin="round"/>
<path d="M258.049 58.6214V69.2054H211.533V29.667H224.982V58.6214H258.049Z" fill="url(#paint12_radial_203_661)" stroke="white" stroke-linejoin="round"/>
<path d="M182.184 56.3629V69.1716H168.735V56.3629L142.443 29.7006H161.016L175.476 44.2957L189.903 29.7006H208.509L182.184 56.3629Z" fill="url(#paint13_radial_203_661)" stroke="white" stroke-linejoin="round"/>
<path d="M122.796 40.5879L114.807 52.6551H130.751L122.796 40.5879ZM103.953 69.1041H88.6504L114.234 29.5657H131.324L156.941 69.1041H141.638L137.762 63.2391H107.83L103.953 69.1041Z" fill="url(#paint14_radial_203_661)" stroke="white" stroke-linejoin="round"/>
<path d="M66.4174 22.9561C68.8356 22.9561 71.1093 23.416 73.2384 24.336C75.3938 25.256 77.2601 26.5177 78.8372 28.1211C80.4406 29.6983 81.7023 31.5514 82.6223 33.6805C83.5423 35.8096 84.0023 38.0964 84.0023 40.541C84.0023 42.4598 83.7 44.2998 83.0954 46.0609C82.5172 47.822 81.6892 49.4386 80.6115 50.9106C79.5601 52.3563 78.2984 53.6179 76.8264 54.6956C75.3544 55.7733 73.751 56.6013 72.0162 57.1796L86.092 69.1658H64.3671L51.3559 58.1259H38.1869V69.2052H22.4551V22.9561H66.4174ZM38.1869 35.573V45.4695H63.4208C64.1043 45.4695 64.7351 45.3381 65.3134 45.0752C65.9179 44.8123 66.4437 44.4575 66.8905 44.0106C67.3374 43.5638 67.6922 43.0512 67.9551 42.4729C68.2179 41.8684 68.3493 41.2244 68.3493 40.541C68.3493 39.8576 68.2179 39.2136 67.9551 38.609C67.6922 38.0044 67.3374 37.4787 66.8905 37.0319C66.4437 36.585 65.9179 36.2302 65.3134 35.9673C64.7351 35.7045 64.1043 35.573 63.4208 35.573H38.1869Z" fill="url(#paint15_radial_203_661)" stroke="white" stroke-linejoin="round"/>
</g>
<defs>
<filter id="filter0_n_203_661" x="21.9551" y="22.3945" width="437.547" height="47.3109" filterUnits="userSpaceOnUse" color-interpolation-filters="sRGB">
<feFlood flood-opacity="0" result="BackgroundImageFix"/>
<feBlend mode="normal" in="SourceGraphic" in2="BackgroundImageFix" result="shape"/>
<feTurbulence type="fractalNoise" baseFrequency="3.0303030014038086 3.0303030014038086" stitchTiles="stitch" numOctaves="3" result="noise" seed="6974" />
<feColorMatrix in="noise" type="luminanceToAlpha" result="alphaNoise" />
<feComponentTransfer in="alphaNoise" result="coloredNoise1">
<feFuncA type="discrete" tableValues="0 0 0 0 1 1 1 1 1 1 1 1 1 1 1 1 1 1 1 1 1 1 1 1 1 1 1 1 1 1 1 1 1 1 1 1 1 1 1 1 1 1 1 1 1 1 0 0 0 0 0 0 0 0 0 0 0 0 0 0 0 0 0 0 0 0 0 0 0 0 0 0 0 0 0 0 0 0 0 0 0 0 0 0 0 0 0 0 0 0 0 0 0 0 0 0 0 0 0 0 "/>
</feComponentTransfer>
<feComposite operator="in" in2="shape" in="coloredNoise1" result="noise1Clipped" />
<feComponentTransfer in="alphaNoise" result="coloredNoise2">
<feFuncA type="discrete" tableValues="0 0 0 0 0 0 0 0 0 0 0 0 0 0 0 0 0 0 0 0 0 0 0 0 0 0 0 0 0 0 0 0 0 0 0 0 0 0 0 0 0 0 0 0 0 0 0 0 0 0 0 0 0 0 1 1 1 1 1 1 1 1 1 1 1 1 1 1 1 1 1 1 1 1 1 1 1 1 1 1 1 1 1 1 1 1 1 1 1 1 1 1 1 1 1 1 0 0 0 0 "/>
</feComponentTransfer>
<feComposite operator="in" in2="shape" in="coloredNoise2" result="noise2Clipped" />
<feFlood flood-color="rgba(0, 0, 0, 0.25)" result="color1Flood" />
<feComposite operator="in" in2="noise1Clipped" in="color1Flood" result="color1" />
<feFlood flood-color="rgba(255, 255, 255, 0.25)" result="color2Flood" />
<feComposite operator="in" in2="noise2Clipped" in="color2Flood" result="color2" />
<feMerge result="effect1_noise_203_661">
<feMergeNode in="shape" />
<feMergeNode in="color1" />
<feMergeNode in="color2" />
</feMerge>
</filter>
<filter id="filter1_nf_203_661" x="0.455078" y="0.894531" width="480.547" height="90.3109" filterUnits="userSpaceOnUse" color-interpolation-filters="sRGB">
<feFlood flood-opacity="0" result="BackgroundImageFix"/>
<feBlend mode="normal" in="SourceGraphic" in2="BackgroundImageFix" result="shape"/>
<feTurbulence type="fractalNoise" baseFrequency="1 1" stitchTiles="stitch" numOctaves="3" result="noise" seed="1872" />
<feComponentTransfer in="noise" result="coloredNoise1">
<feFuncR type="linear" slope="2" intercept="-0.5" />
<feFuncG type="linear" slope="2" intercept="-0.5" />
<feFuncB type="linear" slope="2" intercept="-0.5" />
<feFuncA type="discrete" tableValues="1 1 1 1 1 1 1 1 1 1 1 1 1 1 1 1 1 1 1 1 1 1 1 1 1 1 1 1 1 1 1 1 1 1 1 1 1 1 1 1 1 1 1 1 1 1 1 1 1 1 1 0 0 0 0 0 0 0 0 0 0 0 0 0 0 0 0 0 0 0 0 0 0 0 0 0 0 0 0 0 0 0 0 0 0 0 0 0 0 0 0 0 0 0 0 0 0 0 0 0 "/>
</feComponentTransfer>
<feComposite operator="in" in2="shape" in="coloredNoise1" result="noise1Clipped" />
<feComponentTransfer in="noise1Clipped" result="color1">
<feFuncA type="table" tableValues="0 0.23" />
</feComponentTransfer>
<feMerge result="effect1_noise_203_661">
<feMergeNode in="shape" />
<feMergeNode in="color1" />
</feMerge>
<feGaussianBlur stdDeviation="11" result="effect2_foregroundBlur_203_661"/>
</filter>
<filter id="filter2_f_203_661" x="388.566" y="18.8945" width="74.4355" height="54.2097" filterUnits="userSpaceOnUse" color-interpolation-filters="sRGB">
<feFlood flood-opacity="0" result="BackgroundImageFix"/>
<feBlend mode="normal" in="SourceGraphic" in2="BackgroundImageFix" result="shape"/>
<feGaussianBlur stdDeviation="2" result="effect1_foregroundBlur_203_661"/>
</filter>
<filter id="filter3_f_203_661" x="369.125" y="25.667" width="21.4492" height="47.5385" filterUnits="userSpaceOnUse" color-interpolation-filters="sRGB">
<feFlood flood-opacity="0" result="BackgroundImageFix"/>
<feBlend mode="normal" in="SourceGraphic" in2="BackgroundImageFix" result="shape"/>
<feGaussianBlur stdDeviation="2" result="effect1_foregroundBlur_203_661"/>
</filter>
<filter id="filter4_f_203_661" x="310.039" y="25.7006" width="61.0879" height="47.5048" filterUnits="userSpaceOnUse" color-interpolation-filters="sRGB">
<feFlood flood-opacity="0" result="BackgroundImageFix"/>
<feBlend mode="normal" in="SourceGraphic" in2="BackgroundImageFix" result="shape"/>
<feGaussianBlur stdDeviation="2" result="effect1_foregroundBlur_203_661"/>
</filter>
<filter id="filter5_f_203_661" x="242.424" y="25.7006" width="74.0664" height="47.4711" filterUnits="userSpaceOnUse" color-interpolation-filters="sRGB">
<feFlood flood-opacity="0" result="BackgroundImageFix"/>
<feBlend mode="normal" in="SourceGraphic" in2="BackgroundImageFix" result="shape"/>
<feGaussianBlur stdDeviation="2" result="effect1_foregroundBlur_203_661"/>
</filter>
<filter id="filter6_f_203_661" x="207.533" y="25.667" width="54.5156" height="47.5385" filterUnits="userSpaceOnUse" color-interpolation-filters="sRGB">
<feFlood flood-opacity="0" result="BackgroundImageFix"/>
<feBlend mode="normal" in="SourceGraphic" in2="BackgroundImageFix" result="shape"/>
<feGaussianBlur stdDeviation="2" result="effect1_foregroundBlur_203_661"/>
</filter>
<filter id="filter7_f_203_661" x="138.443" y="25.7006" width="74.0664" height="47.4711" filterUnits="userSpaceOnUse" color-interpolation-filters="sRGB">
<feFlood flood-opacity="0" result="BackgroundImageFix"/>
<feBlend mode="normal" in="SourceGraphic" in2="BackgroundImageFix" result="shape"/>
<feGaussianBlur stdDeviation="2" result="effect1_foregroundBlur_203_661"/>
</filter>
<filter id="filter8_f_203_661" x="84.6504" y="25.5657" width="76.291" height="47.5385" filterUnits="userSpaceOnUse" color-interpolation-filters="sRGB">
<feFlood flood-opacity="0" result="BackgroundImageFix"/>
<feBlend mode="normal" in="SourceGraphic" in2="BackgroundImageFix" result="shape"/>
<feGaussianBlur stdDeviation="2" result="effect1_foregroundBlur_203_661"/>
</filter>
<filter id="filter9_f_203_661" x="18.4551" y="18.9561" width="71.6367" height="54.2491" filterUnits="userSpaceOnUse" color-interpolation-filters="sRGB">
<feFlood flood-opacity="0" result="BackgroundImageFix"/>
<feBlend mode="normal" in="SourceGraphic" in2="BackgroundImageFix" result="shape"/>
<feGaussianBlur stdDeviation="2" result="effect1_foregroundBlur_203_661"/>
</filter>
<radialGradient id="paint0_radial_203_661" cx="0" cy="0" r="1" gradientUnits="userSpaceOnUse" gradientTransform="translate(425.785 45.9994) scale(33.2181 23.1049)">
<stop stop-color="white"/>
<stop offset="1" stop-color="#6179DD"/>
</radialGradient>
<radialGradient id="paint1_radial_203_661" cx="0" cy="0" r="1" gradientUnits="userSpaceOnUse" gradientTransform="translate(379.85 49.4362) scale(6.72457 19.7692)">
<stop stop-color="white"/>
<stop offset="1" stop-color="#6179DD"/>
</radialGradient>
<radialGradient id="paint2_radial_203_661" cx="0" cy="0" r="1" gradientUnits="userSpaceOnUse" gradientTransform="translate(340.583 49.4529) scale(26.5444 19.7524)">
<stop stop-color="white"/>
<stop offset="1" stop-color="#6179DD"/>
</radialGradient>
<radialGradient id="paint3_radial_203_661" cx="0" cy="0" r="1" gradientUnits="userSpaceOnUse" gradientTransform="translate(279.457 49.4361) scale(33.033 19.7355)">
<stop stop-color="white"/>
<stop offset="1" stop-color="#6179DD"/>
</radialGradient>
<radialGradient id="paint4_radial_203_661" cx="0" cy="0" r="1" gradientUnits="userSpaceOnUse" gradientTransform="translate(234.791 49.4362) scale(23.2579 19.7692)">
<stop stop-color="white"/>
<stop offset="1" stop-color="#6179DD"/>
</radialGradient>
<radialGradient id="paint5_radial_203_661" cx="0" cy="0" r="1" gradientUnits="userSpaceOnUse" gradientTransform="translate(175.476 49.4361) scale(33.033 19.7355)">
<stop stop-color="white"/>
<stop offset="1" stop-color="#6179DD"/>
</radialGradient>
<radialGradient id="paint6_radial_203_661" cx="0" cy="0" r="1" gradientUnits="userSpaceOnUse" gradientTransform="translate(122.796 49.3349) scale(34.1453 19.7692)">
<stop stop-color="white"/>
<stop offset="1" stop-color="#6179DD"/>
</radialGradient>
<radialGradient id="paint7_radial_203_661" cx="0" cy="0" r="1" gradientUnits="userSpaceOnUse" gradientTransform="translate(54.2735 46.0806) scale(31.8185 23.1246)">
<stop stop-color="white"/>
<stop offset="1" stop-color="#6179DD"/>
</radialGradient>
<radialGradient id="paint8_radial_203_661" cx="0" cy="0" r="1" gradientUnits="userSpaceOnUse" gradientTransform="translate(425.785 45.9994) scale(33.2181 23.1049)">
<stop stop-color="white"/>
<stop offset="1" stop-color="#6179DD"/>
</radialGradient>
<radialGradient id="paint9_radial_203_661" cx="0" cy="0" r="1" gradientUnits="userSpaceOnUse" gradientTransform="translate(379.85 49.4362) scale(6.72457 19.7692)">
<stop stop-color="white"/>
<stop offset="1" stop-color="#6179DD"/>
</radialGradient>
<radialGradient id="paint10_radial_203_661" cx="0" cy="0" r="1" gradientUnits="userSpaceOnUse" gradientTransform="translate(340.583 49.4529) scale(26.5444 19.7524)">
<stop stop-color="white"/>
<stop offset="1" stop-color="#6179DD"/>
</radialGradient>
<radialGradient id="paint11_radial_203_661" cx="0" cy="0" r="1" gradientUnits="userSpaceOnUse" gradientTransform="translate(279.457 49.4361) scale(33.033 19.7355)">
<stop stop-color="white"/>
<stop offset="1" stop-color="#6179DD"/>
</radialGradient>
<radialGradient id="paint12_radial_203_661" cx="0" cy="0" r="1" gradientUnits="userSpaceOnUse" gradientTransform="translate(234.791 49.4362) scale(23.2579 19.7692)">
<stop stop-color="white"/>
<stop offset="1" stop-color="#6179DD"/>
</radialGradient>
<radialGradient id="paint13_radial_203_661" cx="0" cy="0" r="1" gradientUnits="userSpaceOnUse" gradientTransform="translate(175.476 49.4361) scale(33.033 19.7355)">
<stop stop-color="white"/>
<stop offset="1" stop-color="#6179DD"/>
</radialGradient>
<radialGradient id="paint14_radial_203_661" cx="0" cy="0" r="1" gradientUnits="userSpaceOnUse" gradientTransform="translate(122.796 49.3349) scale(34.1453 19.7692)">
<stop stop-color="white"/>
<stop offset="1" stop-color="#6179DD"/>
</radialGradient>
<radialGradient id="paint15_radial_203_661" cx="0" cy="0" r="1" gradientUnits="userSpaceOnUse" gradientTransform="translate(54.2735 46.0806) scale(31.8185 23.1246)">
<stop stop-color="white"/>
<stop offset="1" stop-color="#6179DD"/>
</radialGradient>
</defs>
</svg>
